<?xml version="1.0" standalone="no"?>
<!DOCTYPE svg PUBLIC "-//W3C//DTD SVG 20010904//EN"
 "http://www.w3.org/TR/2001/REC-SVG-20010904/DTD/svg10.dtd">
<svg version="1.0" xmlns="http://www.w3.org/2000/svg"
 width="283.000000pt" height="189.000000pt" viewBox="0 0 283.000000 189.000000"
 preserveAspectRatio="xMidYMid meet">
<metadata>
Created by potrace 1.15, written by Peter Selinger 2001-2017
</metadata>
<g transform="translate(0.000000,189.000000) scale(0.100000,-0.100000)"
fill="#000000" stroke="none">
<path d="M1247 1729 l-89 -159 43 -77 c23 -42 44 -73 46 -68 7 25 93 458 91
460 -2 2 -43 -69 -91 -156z"/>
<path d="M614 1144 c3 -11 24 -104 46 -209 23 -104 44 -198 46 -208 8 -26 25
-8 54 53 l24 51 -80 160 c-71 145 -106 203 -90 153z"/>
</g>
</svg>
