<?xml version="1.0" encoding="iso-8859-1"?>
<!-- Generator: Adobe Illustrator 19.0.0, SVG Export Plug-In . SVG Version: 6.00 Build 0)  -->
<svg version="1.1" id="Layer_1" xmlns="http://www.w3.org/2000/svg" xmlns:xlink="http://www.w3.org/1999/xlink" x="0px" y="0px"
	 viewBox="0 0 512 512" style="enable-background:new 0 0 512 512;" xml:space="preserve">
<circle style="fill:#FFD15D;" cx="256" cy="256" r="256"/>
<path style="fill:#F9B54C;" d="M316.318,504.834c99.454-24.023,176.243-106.101,192.486-208.365l-89.171-89.171l-40.219,5.415
	l-19.808-19.808l-68.329,34.588L145.124,333.64L316.318,504.834z"/>
<path style="fill:#AA3C51;" d="M390.12,282.579c-23.955,0-43.442-19.489-43.442-43.442s19.489-43.441,43.442-43.441
	s43.442,19.489,43.442,43.441C433.562,263.09,414.074,282.579,390.12,282.579z M390.12,221.555c-9.695,0-17.584,7.887-17.584,17.582
	c0,9.695,7.889,17.584,17.584,17.584c9.695,0,17.584-7.889,17.584-17.584S399.815,221.555,390.12,221.555z"/>
<path style="fill:#FF6472;" d="M359.607,253.931c0,67.408-54.644,122.053-122.053,122.053s-122.053-54.644-122.053-122.053v-61.026
	h244.105V253.931z"/>
<path style="fill:#C75163;" d="M237.613,192.905v183.077c67.381-0.031,121.994-54.663,121.994-122.051v-61.026H237.613z"/>
<path style="fill:#F4E3C3;" d="M186.799,264.014c0-14.015,11.362-25.378,25.378-25.378s25.378,11.362,25.378,25.378
	c0-14.015,11.362-25.378,25.378-25.378s25.378,11.362,25.378,25.378c0,24.267-50.755,53.295-50.755,53.295
	S186.799,289.649,186.799,264.014z"/>
<path style="fill:#FED8B2;" d="M288.309,264.014c0-14.015-11.362-25.378-25.378-25.378c-13.627,0-24.714,10.75-25.321,24.228v54.41
	C238.845,316.564,288.309,287.978,288.309,264.014z"/>
<g>
</g>
<g>
</g>
<g>
</g>
<g>
</g>
<g>
</g>
<g>
</g>
<g>
</g>
<g>
</g>
<g>
</g>
<g>
</g>
<g>
</g>
<g>
</g>
<g>
</g>
<g>
</g>
<g>
</g>
</svg>
