<?xml version="1.0" encoding="utf-8"?>
<!-- Generator: Adobe Illustrator 15.1.0, SVG Export Plug-In . SVG Version: 6.00 Build 0)  -->
<!DOCTYPE svg PUBLIC "-//W3C//DTD SVG 1.1//EN" "http://www.w3.org/Graphics/SVG/1.1/DTD/svg11.dtd">
<svg version="1.1" id="Ebene_1" xmlns="http://www.w3.org/2000/svg" xmlns:xlink="http://www.w3.org/1999/xlink" x="0px" y="0px"
	 width="136.06px" height="90.71px" viewBox="0 0 136.06 90.71" enable-background="new 0 0 136.06 90.71" xml:space="preserve">
<g>
	<path fill="#35A8E0" d="M122.758,74.515c-1.66-3.994-24.503-56.431-25.611-61.594c-1.159-5.42,1.253-8.386,3.884-9.579
		L88.572,0.001c-7.568,5.244-4.301,14.341-4.301,14.341s22.819,55.292,25.001,60.232c1.851,5.889-2.99,11.164-6.293,13.945
		L64.989,0.1h-0.131H51.497h-0.063l0.035,0.075L12.754,90.591h13.55l16.843-39.942L59.906,90.71h13.549l-23.632-55.9l8.352-19.808
		l32.134,75.589h9.898h3.65h12.902C116.76,90.591,125.543,83.401,122.758,74.515z"/>
	<polygon fill="#1D70B7" points="58.175,15.002 64.989,0.1 61.293,22.333 	"/>
	<polyline fill="#1D70B7" points="102.979,88.52 105.96,85.602 103.857,90.591 	"/>
	<polyline fill="#1D70B7" points="36.652,34.777 43.147,50.648 40.553,56.799 	"/>
</g>
</svg>
