<?xml version="1.0" standalone="no"?>
<!DOCTYPE svg PUBLIC "-//W3C//DTD SVG 20010904//EN"
 "http://www.w3.org/TR/2001/REC-SVG-20010904/DTD/svg10.dtd">
<svg version="1.0" xmlns="http://www.w3.org/2000/svg"
 width="113.000000pt" height="113.000000pt" viewBox="0 0 113.000000 113.000000"
 preserveAspectRatio="xMidYMid meet">
<metadata>
Created by potrace 1.11, written by Peter Selinger 2001-2013
</metadata>
<g transform="translate(0.000000,113.000000) scale(0.100000,-0.100000)"
fill="#000000" stroke="none">
<path d="M380 1010 c0 -5 -11 -33 -24 -62 -13 -29 -56 -129 -95 -223 -40 -93
-76 -179 -81 -190 -32 -73 -60 -137 -112 -260 -33 -77 -62 -146 -65 -152 -4
-10 13 -13 64 -13 l70 0 83 195 c45 108 84 194 86 192 2 -2 40 -89 84 -193
l79 -189 70 -3 c58 -2 70 0 65 11 -3 8 -56 135 -118 282 l-113 267 41 96 41
95 26 -59 c14 -32 86 -202 160 -376 l134 -318 136 0 c149 0 149 0 183 67 21
42 20 79 -5 133 -37 80 -211 494 -229 545 -19 55 -17 90 6 116 14 16 11 18
-39 33 -71 21 -72 21 -96 -10 -39 -50 -30 -84 109 -421 72 -174 130 -322 130
-329 0 -23 -31 -80 -50 -92 -16 -10 -35 28 -206 429 l-189 439 -72 0 c-41 0
-73 -4 -73 -10z"/>
</g>
</svg>
